<svg xmlns="http://www.w3.org/2000/svg" viewBox="0 0 381.31 920">
  <title>divider3</title>
  <g>
    <path d="M90,0c14.68,53.83,257.73,155,101.78,381.7C-21,691,291.86,706.31.69,920h53C322.86,722.62,29.24,704.68,233.14,430.64c79-106.21,82-262.63,5.33-430.64Z" transform="translate(-0.69)" style="fill: #9356dc"/>
    <path d="M382,0c-54.8,47.35-55.16,108.76-37,174,27,97-3,219-91,320C88.16,684.33,362,741,83.07,920H53.71C322.86,722.62,29.24,704.68,233.14,430.64c79-106.21,82-262.63,5.33-430.64Z" transform="translate(-0.69)" style="fill: #ff79da"/>
  </g>
</svg>
